<svg width="24" height="24" viewBox="0 0 24 24" xmlns="http://www.w3.org/2000/svg">
    <defs>
        <linearGradient id="closeGradient" x1="0%" y1="0%" x2="100%" y2="100%">
            <stop offset="0%" style="stop-color:#d3d3d3; stop-opacity:1" />
            <stop offset="100%" style="stop-color:#b0b0b0; stop-opacity:1" />
        </linearGradient>
         <filter id="closeDropShadow" x="-20%" y="-20%" width="140%" height="140%">
            <feGaussianBlur in="SourceAlpha" stdDeviation="0.4"/>
            <feOffset dx="0.4" dy="0.4" result="offsetblur"/>
            <feFlood flood-color="rgba(0,0,0,0.25)"/>
            <feComposite in2="offsetblur" operator="in"/>
            <feMerge>
                <feMergeNode/>
                <feMergeNode in="SourceGraphic"/>
            </feMerge>
        </filter>
    </defs>
    <path d="M18.3 5.71a.996.996 0 0 0-1.41 0L12 10.59 7.11 5.7A.996.996 0 1 0 5.7 7.11L10.59 12 5.7 16.89a.996.996 0 1 0 1.41 1.41L12 13.41l4.89 4.89a.996.996 0 1 0 1.41-1.41L13.41 12l4.89-4.89c.38-.38.38-1.02 0-1.4z"
          fill="url(#closeGradient)" filter="url(#closeDropShadow)"
          stroke="#606060" stroke-width="0.5" stroke-linecap="round" />
</svg>
